<?xml version="1.0" encoding="UTF-8" standalone="no"?>
<!-- Created with Inkscape (http://www.inkscape.org/) -->

<svg
   width="125mm"
   height="100mm"
   viewBox="0 0 125 100"
   version="1.1"
   id="svg1"
   xml:space="preserve"
   inkscape:version="1.3.2 (091e20ef0f, 2023-11-25)"
   sodipodi:docname="logo_cloud.svg"
   xmlns:inkscape="http://www.inkscape.org/namespaces/inkscape"
   xmlns:sodipodi="http://sodipodi.sourceforge.net/DTD/sodipodi-0.dtd"
   xmlns="http://www.w3.org/2000/svg"
   xmlns:svg="http://www.w3.org/2000/svg"><sodipodi:namedview
     id="namedview1"
     pagecolor="#ffffff"
     bordercolor="#000000"
     borderopacity="0.25"
     inkscape:showpageshadow="2"
     inkscape:pageopacity="0.0"
     inkscape:pagecheckerboard="0"
     inkscape:deskcolor="#d1d1d1"
     inkscape:document-units="mm"
     inkscape:zoom="0.64126689"
     inkscape:cx="158.28043"
     inkscape:cy="236.25109"
     inkscape:window-width="1366"
     inkscape:window-height="705"
     inkscape:window-x="-8"
     inkscape:window-y="-8"
     inkscape:window-maximized="1"
     inkscape:current-layer="layer2"
     showguides="true" /><defs
     id="defs1" /><g
     inkscape:label="Слой 1"
     inkscape:groupmode="layer"
     id="layer1"><path
       id="path1"
       style="fill:#000000"
       d="m 79.113535,5.646481 c -1.33042,0.003 -2.69554,0.11357 -4.08295,0.33486 -2.89906,0.46241 -4.44181,0.93397 -6.53448,1.99729 -3.74783,1.9045 -6.1052,3.91814 -7.809347,6.6704 l -0.938961,1.51618 -2.545064,-0.0346 c -5.860915,-0.0804 -10.116036,1.3167 -13.280844,4.35994 -3.271699,3.14624 -5.376733,8.0569 -5.945373,13.86892 l -0.187069,1.91255 -0.958598,0.15399 c -2.237219,0.35925 -3.702119,0.76534 -5.228621,1.45004 -1.507458,0.67616 -4.328349,2.43949 -5.161959,3.22668 -4.09623,3.86808 -8.142175,6.29316 -10.499101,6.29316 -1.993319,0 -5.552083,-1.46683 -9.3027912,-3.83439 -1.22976,-0.77632 -1.287327,-0.62313 -0.549837,1.46244 3.018761,8.5366 2.988136,8.46012 4.8482832,12.11347 3.101054,6.09033 7.359365,10.2849 12.20649,12.02356 2.842311,1.01954 7.56521,1.2967 10.876855,0.6382 0.767079,-0.15253 0.824223,-0.0937 1.697054,1.75028 1.616154,3.41437 4.308692,6.40729 6.844544,7.60832 0.686308,0.32506 2.081443,0.80335 3.100069,1.06247 3.948502,1.00445 8.733662,0.49618 12.275736,-1.3038 1.736881,-0.88263 5.557984,-3.46799 6.111254,-4.13463 0.45472,-0.54791 0.88759,-0.49951 1.48156,0.16588 1.82544,2.04429 5.57728,3.93901 8.78655,4.43694 10.13998,1.57329 20.23231,-3.69071 22.03431,-11.49232 l 0.30386,-1.31413 3.07836,-0.003 c 2.278645,-0.002 3.490815,-0.13307 4.665865,-0.50385 9.51588,-3.00253 15.04738,-10.40419 15.63781,-20.9243 0.56517,-10.07351 -3.42301,-19.06621 -10.42883,-23.51226 -3.22441,-2.04649 -5.78096,-2.81327 -9.37513,-2.81327 h -2.497005 l -0.71158,-1.81332 c -0.8844,-2.25416 -1.92539,-3.91296 -3.54346,-5.64514 -3.48272,-3.72836 -8.60164,-5.72995 -14.3676,-5.71644 z m -1.43815,2.1425 h 5.2e-4 v 5.2e-4 5.2e-4 5.1e-4 5.2e-4 c 2.64082,-0.0524 6.33925,0.14864 6.43681,0.44132 0.0495,0.14858 0.34823,0.27405 0.66353,0.27905 0.3153,0.005 1.04933,0.23922 1.63142,0.52038 0.58208,0.28117 1.20717,0.51538 1.38907,0.52038 0.1819,0.005 0.33072,0.12785 0.33072,0.27337 0,0.14553 0.12816,0.26458 0.28474,0.26458 0.42867,0 3.16075,2.17724 4.21318,3.35742 1.04134,1.16773 2.64583,4.07578 2.64583,4.79557 0,0.25981 0.10917,0.58522 0.24237,0.72347 0.1332,0.13823 0.28203,0.54933 0.33073,0.91313 0.0882,0.65873 0.10111,0.66169 3.24683,0.73639 1.737175,0.0412 3.284995,0.17441 3.439575,0.2961 0.15458,0.12169 0.74224,0.3045 1.30586,0.40618 0.56362,0.10169 1.21846,0.28174 1.45521,0.39997 0.23674,0.11823 1.02578,0.48742 1.75338,0.82063 0.7276,0.3332 1.73964,0.90561 2.24896,1.27175 1.15227,0.82832 3.43958,2.99288 3.43958,3.2551 0,0.10711 0.2679,0.4872 0.59532,0.84439 0.32743,0.35717 0.82773,1.10728 1.11156,1.66709 0.28383,0.55981 0.65753,1.19662 0.83044,1.4149 0.17291,0.21828 0.39661,0.78384 0.49713,1.25677 0.10033,0.47294 0.28245,0.85989 0.40462,0.85989 0.20839,0 0.45889,0.85595 1.08366,3.70417 0.14364,0.65484 0.37557,1.39734 0.51521,1.65003 0.31639,0.57261 0.33768,9.11414 0.0238,9.30847 -0.12636,0.0781 -0.31016,0.85509 -0.40876,1.72703 -0.0986,0.87194 -0.29321,1.6557 -0.43201,1.7415 -0.1388,0.0858 -0.25219,0.33423 -0.25219,0.5519 0,1.26994 -2.73468,5.78337 -4.51238,7.44761 -1.48371,1.38902 -4.15371,3.23753 -4.6762,3.23753 -0.18502,0 -0.33642,0.11906 -0.33642,0.26458 0,0.14552 -0.14882,0.26576 -0.33072,0.26665 -0.1819,9e-4 -0.63966,0.16226 -1.017,0.35915 -0.37734,0.19691 -1.12147,0.44022 -1.65364,0.54002 -0.53216,0.0998 -0.96739,0.29515 -0.96739,0.43408 0,0.14675 -1.36731,0.25218 -3.263355,0.25218 -3.17484,0 -3.31329,-0.0243 -5.09323,-0.89813 -2.94744,-1.44696 -4.42464,-3.09998 -5.40897,-6.05286 -0.39974,-1.1992 -0.51666,-1.88156 -0.47853,-2.93264 -0.10341,-0.0388 -0.18902,-0.16466 -0.18138,-0.37776 0.004,-0.10749 0.008,-0.21511 0.015,-0.32246 0.0107,-0.16642 0.0285,-0.33249 0.0325,-0.49919 0.004,-0.1967 0.008,-0.39366 0.0181,-0.59015 0.01,-0.18518 0.029,-0.37006 0.03,-0.55552 10e-4,-0.19588 0.002,-0.39171 0.005,-0.58756 0.004,-0.1954 0.007,-0.39108 0.0222,-0.58601 0.014,-0.17738 0.0297,-0.3546 0.0227,-0.53278 v -0.65061 c 1e-5,-0.2426 4.8e-4,-0.485 5.1e-4,-0.7276 3e-5,-0.20869 -2.4e-4,-0.41763 0,-0.62632 0,-0.17695 5.5e-4,-0.35377 0.002,-0.53072 0.001,-0.156 0.003,-0.31179 0.0103,-0.46767 0.008,-0.16053 0.0174,-0.32119 0.0388,-0.48059 0.0184,-0.1397 0.024,-0.28019 0.0351,-0.42065 0.005,-0.0594 0.009,-0.11892 0.0124,-0.17828 -0.52483,0.68389 -0.90065,1.31158 -0.90227,1.67018 -9e-4,0.18703 -0.20497,0.69723 -0.4532,1.13378 -0.3693,0.64951 -0.45347,1.52491 -0.46147,4.81573 -0.007,2.87612 0.0844,4.11566 0.32091,4.35219 0.1819,0.1819 0.33072,0.55338 0.33072,0.82579 0,0.84893 1.30136,2.76566 2.81999,4.15375 0.80074,0.73183 1.57729,1.33067 1.72547,1.33067 0.14818,0 0.68545,0.1978 1.19425,0.43925 l 0.92552,0.43873 -0.18448,1.4795 c -0.10141,0.81339 -0.26155,1.53847 -0.35605,1.61127 -0.0945,0.0728 -0.44014,0.68214 -0.76792,1.35392 -0.94916,1.94524 -4.81388,5.17959 -6.77788,5.67252 -0.38244,0.096 -0.69556,0.27061 -0.69556,0.38757 0,0.11695 -0.50601,0.29591 -1.12448,0.39791 -0.61847,0.10201 -1.29179,0.32083 -1.49603,0.48628 -0.54463,0.44121 -9.67501,0.41469 -10.11928,-0.03 -0.18196,-0.1819 -0.49221,-0.33073 -0.68937,-0.33073 -0.36848,0 -2.17649,-0.81425 -3.0949,-1.39372 -0.54214,-0.34207 -2.31303,-2.15649 -3.40909,-3.49281 l -0.64441,-0.78548 -1.03198,0.91777 c -1.40494,1.24986 -3.136712,2.63544 -4.288623,3.43132 -0.526541,0.3638 -0.996914,0.75076 -1.045414,0.8599 -0.04851,0.10919 -0.227105,0.20005 -0.396875,0.20205 -0.16977,0.002 -0.991477,0.34943 -1.825728,0.77256 -0.834269,0.42313 -2.345344,0.89761 -3.357935,1.05472 v 5.2e-4 c -2.804393,0.43513 -7.524079,0.16709 -8.320422,-0.47233 -0.16405,-0.13172 -0.685144,-0.32211 -1.158069,-0.42323 -0.472942,-0.10113 -0.859896,-0.2934 -0.859896,-0.42736 0,-0.13396 -0.16148,-0.24391 -0.358634,-0.24391 -0.197172,0 -0.941332,-0.6298 -1.653646,-1.39992 -2.002783,-2.16532 -2.459364,-2.76889 -2.640149,-3.48919 -0.09204,-0.36673 -0.273848,-0.66714 -0.403593,-0.66714 -0.129745,0 -0.235644,-0.13052 -0.235644,-0.29043 0,-0.15971 -0.173212,-0.66592 -0.38499,-1.12447 -0.942281,-2.04033 -1.195093,-3.28578 -1.198893,-5.91127 -0.0021,-1.48299 0.10211,-2.76221 0.23151,-2.84221 0.1294,-0.08 0.315785,-0.46679 0.414445,-0.85989 0.20935,-0.83411 2.378437,-2.94761 3.249414,-3.16622 0.329348,-0.0827 0.59893,-0.24917 0.59893,-0.37 0,-0.12083 0.535801,-0.29971 1.190625,-0.39791 0.654826,-0.0982 1.190625,-0.28441 1.190625,-0.41341 0,-0.129 1.227899,-0.23461 2.728516,-0.23461 3.659169,0 5.165534,0.7042 6.803719,3.57601 -5.1e-5,-0.003 4.9e-5,-0.006 0,-0.009 -8.07e-4,-0.0582 -9.91e-4,-0.11646 -0.001,-0.17466 -1.24e-4,-0.0602 2.5e-5,-0.12067 0,-0.18087 -2.1e-5,-0.0634 3e-6,-0.12677 0,-0.19017 -3e-6,-0.0672 0,-0.13434 0,-0.20154 v -0.20309 -0.19843 -0.1726 -0.17208 -0.15917 -0.17518 -0.19017 -0.1726 -0.15865 -0.16071 -0.18707 -0.1664 c 0.0039,-0.0617 0.01195,-0.12278 0.01705,-0.18448 5.5e-4,-0.0179 0.0027,-0.0354 0.0041,-0.0532 -0.888733,-0.84228 -1.976203,-1.46881 -3.038575,-1.66811 -0.529889,-0.0994 -1.028719,-0.28646 -1.108459,-0.41548 -0.201389,-0.32585 -5.599549,-0.29851 -5.80223,0.03 -0.08994,0.14552 -0.424273,0.26576 -0.743107,0.26665 -0.318833,9e-4 -0.921087,0.1795 -1.337903,0.39688 -0.416816,0.21738 -0.857159,0.3948 -0.978751,0.3948 -0.496976,0 -2.677456,1.69134 -3.516582,2.72749 -1.763689,2.17766 -1.890323,2.61092 -1.890323,6.4673 v 3.50573 l -0.880773,0.16554 c -1.486064,0.2792 -8.335372,-0.0319 -8.452714,-0.38395 -0.05701,-0.17103 -0.328132,-0.31109 -0.602547,-0.31109 -0.589684,0 -2.42847,-0.90804 -3.583244,-1.76992 -0.450297,-0.33608 -0.930897,-0.61133 -1.068152,-0.61133 -0.503654,0 -5.124235,-5.34563 -5.124235,-5.92832 0,-0.0812 -0.476269,-0.92589 -1.058333,-1.87689 -0.582083,-0.951 -1.058333,-1.84606 -1.058333,-1.98954 0,-0.14349 -0.238143,-0.70549 -0.529167,-1.24851 -0.291042,-0.54302 -0.529167,-1.13782 -0.529167,-1.32188 0,-0.18405 -0.105803,-0.33486 -0.235128,-0.33486 -0.129325,0 -0.318668,-0.44649 -0.420646,-0.99219 -0.101977,-0.54569 -0.281573,-1.11125 -0.398942,-1.25677 -0.1173702,-0.14552 -0.3352882,-0.71107 -0.4842082,-1.25677 -0.281933,-1.03311 -0.137278,-1.18933 0.6826462,-0.74001 1.926156,1.05553 2.621685,1.20373 5.618778,1.19373 2.940976,-0.009 3.095794,-0.039 4.630209,-0.88677 1.831795,-1.01209 4.364409,-2.91003 7.12773,-5.34024 1.280598,-1.12632 3.058343,-2.30636 4.513936,-2.99672 0.582066,-0.27607 1.29646,-0.62793 1.5875,-0.78186 0.291042,-0.15393 1.738645,-0.32806 3.216858,-0.38706 l 2.687691,-0.10697 0.188619,-3.0179 c 0.103705,-1.65975 0.282062,-3.07547 0.396359,-3.14607 0.114297,-0.0706 0.290879,-0.73423 0.39274,-1.47484 0.101861,-0.74062 0.350505,-1.66352 0.552422,-2.05052 0.201915,-0.387 0.368072,-0.83354 0.368969,-0.99219 8.96e-4,-0.15866 0.377611,-1.04149 0.837675,-1.96215 0.864289,-1.72963 4.228895,-5.55419 4.886007,-5.55419 0.199763,0 0.363285,-0.10995 0.363285,-0.24391 0,-0.13396 0.357189,-0.32165 0.79375,-0.41755 0.436563,-0.0959 0.79375,-0.26812 0.79375,-0.38292 0,-0.1148 0.503456,-0.27665 1.118795,-0.35915 0.615311,-0.0825 1.160729,-0.27659 1.212329,-0.4315 0.05992,-0.17975 1.33023,-0.28163 3.511414,-0.28163 h 3.183785 c 0.02231,-0.0229 0.0535,-0.0436 0.0956,-0.0584 0.08591,-0.0302 0.1746,-0.0379 0.2651,-0.0439 0.100352,-0.007 0.200936,-0.007 0.301274,-0.0134 0.09086,-0.0386 0.177617,-0.0566 0.280086,-0.0558 0.05563,-5.7e-4 0.111346,4.9e-4 0.166915,0.004 0.06517,-0.007 0.130618,-0.0121 0.19637,-0.0103 0.116501,3e-5 0.232833,-2e-4 0.349333,0 0.110868,0 0.221937,7.6e-4 0.332796,0.002 0.09244,0.001 0.184796,0.004 0.276986,0.0114 0.103585,0.009 0.206135,0.0261 0.306441,0.0543 0.109228,0.0298 0.220361,0.0596 0.323495,0.10697 0.184034,-0.43032 0.394582,-0.87451 0.707962,-1.45418 0.23603,-0.43655 0.5562,-1.03188 0.71159,-1.32292 0.3749,-0.70215 3.38081,-3.83645 3.67936,-3.83645 0.12879,0 0.68559,-0.35719 1.23662,-0.79375 0.55121,-0.43655 1.11593,-0.79375 1.25522,-0.79375 0.13929,0 0.78733,-0.28359 1.4397,-0.63046 1.23848,-0.6585 2.70035,-1.07393 5.37487,-1.526 0.47279,-0.0799 1.23581,-0.12519 2.11615,-0.14263 z m -17.073377,12.48761 c -0.01584,0.003 -0.03166,0.006 -0.04754,0.009 0.01519,0.004 0.03021,0.009 0.04496,0.0145 9.14e-4,-0.008 0.0017,-0.0156 0.0026,-0.0233 z m -0.112654,0.062 v 5.2e-4 c -0.0036,3.2e-4 -0.0096,0.006 -0.01189,0.009 -6e-4,8.7e-4 -0.0014,0.002 -0.0021,0.003 0.0093,-0.004 0.01721,-0.008 0.01654,-0.0103 -4.43e-4,-10e-4 -0.0014,-0.002 -0.0026,-0.002 z m -2.268596,0.84956 c -0.0046,3.9e-4 -0.0093,8.5e-4 -0.01395,10e-4 -0.02249,0.001 -0.04474,0.003 -0.06718,0.005 -8.54e-4,0.004 -0.0016,0.008 -0.0026,0.0124 0.02786,-0.006 0.05582,-0.0123 0.08372,-0.0186 z m 2.282548,0.44235 c -0.01625,0.006 -0.03222,0.0118 -0.04858,0.0171 0.01605,0.002 0.03201,0.005 0.04806,0.007 1.89e-4,-0.007 3.23e-4,-0.0165 5.16e-4,-0.0238 z m 0.379822,1.8185 c -0.0095,0.009 -0.01891,0.0178 -0.02842,0.0258 -0.003,0.002 -0.0063,0.004 -0.0093,0.007 0.01945,-0.005 0.03868,-0.009 0.05788,-0.0129 -0.0064,-0.006 -0.01372,-0.0117 -0.02015,-0.0181 z m 0.468705,0.48782 v 5.2e-4 c -0.0082,-0.001 -0.0223,0.005 -0.03617,0.0103 -0.03672,0.017 -0.07289,0.0355 -0.109037,0.0537 -0.05086,0.0224 -0.100122,0.0479 -0.148312,0.0755 -0.04848,0.0284 -0.09729,0.0566 -0.144694,0.0868 -0.0494,0.0297 -0.09747,0.0613 -0.146244,0.092 -0.06111,0.0398 -0.123075,0.0775 -0.184485,0.11679 -0.05972,0.0383 -0.121358,0.0739 -0.182418,0.11007 -0.06077,0.0389 -0.125145,0.0714 -0.187585,0.10748 -0.06211,0.0361 -0.12013,0.0791 -0.1757,0.12454 -0.0512,0.0447 -0.100932,0.0904 -0.151412,0.13591 -0.04921,0.0453 -0.096,0.0932 -0.143661,0.14005 -0.05305,0.0507 -0.105319,0.10253 -0.156579,0.15503 -0.04964,0.0497 -0.102069,0.0969 -0.155029,0.14314 -0.04298,0.0372 -0.08598,0.0745 -0.128158,0.11265 -0.04134,0.0357 -0.08093,0.0733 -0.120923,0.11059 -0.03677,0.0336 -0.07169,0.0692 -0.10852,0.10284 -0.02985,0.0281 -0.05845,0.0572 -0.08733,0.0863 -0.03749,0.0367 -0.06899,0.0788 -0.101286,0.11989 -0.03604,0.0425 -0.06692,0.0892 -0.100253,0.13384 -0.03278,0.0419 -0.0639,0.0853 -0.09612,0.12764 -0.0272,0.0327 -0.05327,0.0659 -0.08268,0.0966 -0.01479,0.0159 -0.03034,0.0309 -0.04651,0.0455 0.198915,0.36808 0.420626,0.73858 0.673344,1.10949 0.02822,-0.0249 0.05719,-0.0488 0.08527,-0.0739 0.04018,-0.0317 0.07702,-0.0669 0.115239,-0.10076 0.03969,-0.0355 0.07886,-0.0717 0.117822,-0.10801 3.61e-4,-3.3e-4 9.04e-4,-9.1e-4 0.001,-0.001 9.82e-4,-0.0191 0.0041,-0.0389 0.0088,-0.0594 0.0247,-0.0691 0.06827,-0.1333 0.131775,-0.1726 0.016,-0.01 0.03341,-0.0169 0.05013,-0.0264 0.02586,-0.011 0.05228,-0.0197 0.07906,-0.0274 0.0117,-0.0124 0.02338,-0.0249 0.03514,-0.0372 0.03137,-0.0315 0.06399,-0.0618 0.09405,-0.0946 0.03752,-0.0426 0.07635,-0.0842 0.115238,-0.12557 0.03602,-0.038 0.07047,-0.0773 0.10542,-0.11627 0.02887,-0.0348 0.05643,-0.0704 0.08682,-0.10387 0.04157,-0.0411 0.08423,-0.0813 0.127641,-0.12041 0.04275,-0.0353 0.08537,-0.0706 0.128158,-0.10594 0.04393,-0.0385 0.09052,-0.0738 0.137459,-0.10852 0.04726,-0.0359 0.09283,-0.0737 0.138493,-0.11162 0.03832,-0.0286 0.07335,-0.0608 0.109554,-0.092 0.02924,-0.0302 0.06417,-0.054 0.09767,-0.0791 0.03514,-0.0259 0.06662,-0.056 0.100253,-0.0837 0.0403,-0.0332 0.08109,-0.0661 0.121956,-0.0987 0.03976,-0.033 0.08021,-0.0651 0.12299,-0.0941 0.05022,-0.0325 0.101866,-0.0628 0.15193,-0.0956 0.043,-0.0282 0.0886,-0.0525 0.13384,-0.077 0.0204,-0.0146 0.0405,-0.0297 0.0615,-0.0434 0.11776,-0.0728 0.23863,-0.14227 0.36897,-0.19017 0.0192,-0.007 0.0385,-0.0141 0.0579,-0.0207 0.0414,-0.0284 0.0823,-0.0589 0.12248,-0.0889 0.0185,-0.0141 0.0375,-0.0276 0.0568,-0.0403 -0.2964,-0.29325 -0.61919,-0.606 -0.912606,-0.89711 -0.0097,-2.7e-4 -0.01986,-9.7e-4 -0.03101,-0.003 z m -3.489709,0.47646 c -0.0012,3.2e-4 -0.0024,8.6e-4 -0.0036,10e-4 2.7e-4,0.001 2.45e-4,0.002 5.16e-4,0.004 9.88e-4,-0.002 0.0021,-0.003 0.0031,-0.005 z m 0.540019,0.17518 c -0.0073,0.004 -0.01444,0.008 -0.0217,0.0114 -1.22e-4,10e-4 -3.95e-4,0.002 -5.16e-4,0.003 0.0073,-0.005 0.0148,-0.01 0.02222,-0.0145 z m 1.470194,0.10129 c -0.0158,0.008 -0.03165,0.0163 -0.04754,0.0243 -0.002,0.007 -0.0057,0.0171 -0.0083,0.0253 0.01848,-0.0167 0.03732,-0.033 0.05581,-0.0496 z m -0.238228,0.22686 c -0.03959,0.0333 -0.07886,0.067 -0.118856,0.0997 -0.07697,0.066 -0.154437,0.13082 -0.230477,0.19792 -0.05749,0.046 -0.110724,0.0974 -0.163297,0.14883 -0.05302,0.0559 -0.116017,0.1002 -0.176217,0.1478 -0.0055,0.004 -0.01152,0.008 -0.01705,0.0119 -0.02689,0.0402 -0.05267,0.081 -0.07906,0.12144 -0.0088,0.0162 -0.0168,0.0327 -0.02532,0.0491 0.02267,-0.0284 0.04426,-0.0578 0.07028,-0.0832 0.03042,-0.0306 0.06045,-0.0614 0.09198,-0.0909 0.03654,-0.0332 0.071,-0.0686 0.107487,-0.10181 0.04046,-0.0377 0.08066,-0.0754 0.122473,-0.11162 0.04281,-0.0387 0.08609,-0.0765 0.129708,-0.1142 0.05039,-0.0439 0.100008,-0.0892 0.147278,-0.13643 0.04609,-0.0472 0.09351,-0.0928 0.141077,-0.13849 z m -1.591118,0.13126 v 5.1e-4 c 0.0017,0.005 0.0034,0.01 0.0052,0.0145 0.0029,-0.003 0.006,-0.005 0.0088,-0.008 l 0.0036,-0.003 c -0.0061,-5.3e-4 -0.01176,-0.002 -0.01757,-0.004 z m 2.503724,1.15238 c -0.01911,0.0159 -0.03823,0.0317 -0.05736,0.0475 0.0042,-0.002 0.0081,-0.005 0.0124,-0.007 0.0068,-0.003 0.01379,-0.007 0.02067,-0.0103 0.0079,-0.0102 0.01623,-0.02 0.02429,-0.03 z m 3.44423,0.30644 c -0.01,0.0152 -0.0237,0.0302 -0.0424,0.0444 -0.0171,0.0221 -0.0337,0.0445 -0.0532,0.0646 -0.0371,0.0382 -0.082,0.0677 -0.12712,0.0956 -0.0463,0.0275 -0.0939,0.0524 -0.14056,0.0791 -0.0293,0.0153 -0.0573,0.0326 -0.0858,0.0491 -0.0343,0.0289 -0.0673,0.0594 -0.10284,0.0868 -0.0362,0.0294 -0.0712,0.0599 -0.10645,0.0904 -0.037,0.0302 -0.0722,0.0625 -0.10801,0.0941 -0.0354,0.0318 -0.0692,0.0651 -0.1049,0.0966 -0.002,10e-4 -0.003,0.003 -0.005,0.004 -0.0132,0.0132 -0.0261,0.0266 -0.0393,0.0398 -0.0328,0.0338 -0.0678,0.0649 -0.10336,0.0956 -0.0482,0.0399 -0.10031,0.0742 -0.15141,0.11007 -0.0454,0.0339 -0.0903,0.0689 -0.13642,0.1018 -0.0573,0.0431 -0.1151,0.0848 -0.1726,0.12765 -0.053,0.0383 -0.1038,0.0791 -0.154,0.12092 -0.0407,0.0353 -0.0827,0.0697 -0.1235,0.1049 -0.0404,0.0342 -0.08,0.0692 -0.11989,0.10387 l -0.009,0.009 c -0.0104,0.01 -0.0218,0.0204 -0.0336,0.031 -0.0318,0.0303 -0.0626,0.0618 -0.093,0.0935 -0.0437,0.0435 -0.0871,0.0873 -0.12764,0.13384 -0.0358,0.0411 -0.0708,0.0828 -0.10697,0.1235 -0.035,0.0489 -0.0712,0.0985 -0.11885,0.13591 -0.0126,0.008 -0.0257,0.0153 -0.0388,0.0217 -0.0203,0.0197 -0.0407,0.0393 -0.0605,0.0594 -0.05313,0.0534 -0.103857,0.10863 -0.150897,0.16743 -0.03705,0.0497 -0.07049,0.10206 -0.105937,0.15296 -0.04128,0.0583 -0.08277,0.11683 -0.12609,0.17363 -0.04381,0.0565 -0.09257,0.10883 -0.141077,0.16123 -0.04091,0.0433 -0.08011,0.0879 -0.119889,0.13229 -0.0029,0.003 -0.0054,0.007 -0.0083,0.01 0.273439,0.29878 0.527327,0.60428 0.820109,0.89401 0.0346,-0.0668 0.0758,-0.1294 0.11937,-0.19069 0.0434,-0.068 0.0905,-0.13382 0.13953,-0.19792 0.0694,-0.0896 0.14419,-0.17512 0.21239,-0.26562 0.0636,-0.0799 0.12441,-0.16159 0.18551,-0.24339 0.0622,-0.086 0.12734,-0.16965 0.19534,-0.25115 0.0905,-0.10042 0.19362,-0.18942 0.29817,-0.27492 0.0836,-0.075 0.17544,-0.14056 0.25994,-0.21446 0.0815,-0.0749 0.16261,-0.14991 0.24081,-0.22841 0.0768,-0.0672 0.14051,-0.14709 0.21291,-0.21859 0.0811,-0.0727 0.16493,-0.14242 0.24753,-0.21342 0.0946,-0.0897 0.1869,-0.1812 0.2868,-0.2651 0.0845,-0.0718 0.17342,-0.13781 0.26252,-0.20361 0.0744,-0.0625 0.15922,-0.11081 0.23822,-0.16691 0.0553,-0.0411 0.11123,-0.0803 0.1695,-0.11627 -0.21951,-0.22485 -0.53886,-0.52345 -0.77153,-0.7581 z m -3.932056,0.19844 c -0.0024,0.003 -0.0049,0.005 -0.0072,0.008 5.21e-4,-1.5e-4 6.57e-4,-3.6e-4 0.0016,-5.2e-4 6.74e-4,-5.4e-4 0.0014,0.001 0.0021,-0.002 0.0014,-0.001 0.0027,-0.002 0.0041,-0.003 -3.7e-5,-2.1e-4 -3.49e-4,-0.002 -5.17e-4,-0.003 z m 0.149862,0.96118 c -0.0025,6.1e-4 -0.0035,0.001 -0.0062,0.002 0.0032,0.0243 0.0046,0.0638 0.0047,0.0878 0.0024,-0.003 0.0053,-0.008 0.0072,-0.0114 -0.003,-0.0103 -0.0056,-0.0208 -0.0067,-0.0315 -0.0016,-0.0158 -7.27e-4,-0.0312 10e-4,-0.0465 z m -0.148312,0.72606 c -3.58e-4,4e-5 -0.001,4.7e-4 -0.001,5.1e-4 -0.0028,0.005 -0.0063,0.008 -0.0093,0.0119 0.003,0.004 0.0063,0.008 0.0093,0.0114 4.13e-4,-0.008 0.001,-0.0159 0.001,-0.0238 z m 0.781865,0.016 c -7.06e-4,0.002 -0.0018,0.005 -0.0026,0.007 0.006,-0.003 0.01207,-0.005 0.01809,-0.007 -0.0052,1.1e-4 -0.01034,-8e-5 -0.0155,0 z m -0.01757,0.0129 c -8.49e-4,3.8e-4 -0.0017,9.9e-4 -0.0026,10e-4 8.55e-4,-2.1e-4 0.0017,-3.1e-4 0.0026,-5.2e-4 z m -0.0026,10e-4 v -5.2e-4 c -7.05e-4,3e-4 -0.0014,9.5e-4 -0.0021,0.001 6.93e-4,-1.7e-4 0.0014,-3.3e-4 0.0021,-5.1e-4 z m -0.0021,5.1e-4 v -5.1e-4 c -7.06e-4,2.7e-4 -0.0014,9.4e-4 -0.0021,0.001 6.94e-4,-1.8e-4 0.0014,-3.2e-4 0.0021,-5.2e-4 z m -0.0021,5.2e-4 v -5.2e-4 c -7.08e-4,2.9e-4 -0.0014,9.6e-4 -0.0021,0.001 6.92e-4,-1.8e-4 0.0014,-3.1e-4 0.0021,-5.2e-4 z m -0.0021,5.2e-4 c -0.0092,0.002 -0.01853,0.003 -0.02791,0.005 -7.94e-4,0.003 -0.0018,0.005 -0.0026,0.008 0.01004,-0.006 0.02036,-0.008 0.03049,-0.0124 z m 5.166096,0.13952 c -0.0179,0.0139 -0.0359,0.0275 -0.0538,0.0413 0.0228,-0.007 0.0466,-0.0112 0.0698,-0.0165 0.002,9e-5 0.005,3.7e-4 0.007,5.2e-4 -0.009,-0.009 -0.0141,-0.0162 -0.0227,-0.0253 z m -4.708243,0.17725 c -0.0043,0.002 -0.0082,0.004 -0.0124,0.006 h 10e-4 c 0.0042,-10e-4 0.01547,-0.008 0.01137,-0.006 z m 2.545063,1.69602 c -0.0941,0.11099 -0.1949,0.2162 -0.28164,0.33332 0.001,0.006 0.004,0.01 0.005,0.016 0.0892,-0.11907 0.18224,-0.23493 0.27698,-0.34934 z m -1.74976,0.13798 -0.007,0.005 c -0.002,0.002 -0.005,0.01 -0.003,0.008 0.004,-0.004 0.007,-0.008 0.0103,-0.0124 z m 5.54023,0.92243 c 1.6e-4,0.001 3.7e-4,0.003 5.1e-4,0.004 8.7e-4,-3e-5 0.002,3e-5 0.003,0 -9.4e-4,-0.001 -0.002,-0.002 -0.003,-0.004 z m 1.04179,0.60668 v 5.1e-4 c 0.003,0.007 0.005,0.0123 0.007,0.0186 0.005,7.4e-4 0.01,0.001 0.015,0.002 -0.008,-0.008 -0.0142,-0.0143 -0.0217,-0.0212 z m 1.46968,1.82211 c -0.009,7.9e-4 -0.0203,0.003 -0.0258,0.005 -0.007,0.003 -0.0138,0.007 -0.0207,0.01 3.3e-4,1.9e-4 0.001,3.3e-4 0.001,5.2e-4 0.0186,-0.004 0.0389,-0.003 0.0558,-0.0124 0.002,-10e-4 0.002,-0.002 5.1e-4,-0.002 l -5.1e-4,-0.001 c -0.002,-3.3e-4 -0.006,-3.1e-4 -0.0103,0 z m 0.54674,0.89555 -5.2e-4,5.2e-4 c -6.2e-4,0.002 -0.002,0.005 -0.002,0.006 8.7e-4,1.2e-4 0.002,4.1e-4 0.003,5.2e-4 -6.4e-4,-0.003 1.3e-4,-0.004 -5.2e-4,-0.007 z m 18.73994,16.7597 c -0.002,0.0627 -0.006,0.12538 -0.007,0.1881 0.0153,-0.0596 0.0371,-0.11774 0.0532,-0.17725 -0.0156,-0.003 -0.0307,-0.007 -0.046,-0.0109 z m -36.734708,4.73563 v 0.0134 c 0.0011,-0.003 0.0019,-0.007 0.0031,-0.0103 -10e-4,-9.2e-4 -0.0021,-0.001 -0.0031,-0.003 z m 1.529105,2.48409 c -0.0017,0.003 -0.0031,0.005 -0.0047,0.008 0.0019,-6.3e-4 0.0038,-0.001 0.0057,-0.002 0.002,0 9.8e-5,-0.008 -0.001,-0.006 z m 0.08061,0.23047 c -5.64e-4,0.0107 -3.61e-4,0.0214 -10e-4,0.032 0.0019,-0.003 0.0039,-0.007 0.0057,-0.0103 -0.0018,-0.007 -0.0028,-0.0144 -0.0047,-0.0217 z" /></g><g
     inkscape:groupmode="layer"
     id="layer2"
     inkscape:label="Слой 2"><path
       id="path2"
       style="fill:#000000"
       d="m 69.653655,21.598991 c -2.34369,0.0322 -4.71909,0.53493 -6.92258,1.57045 -0.43855,0.2061 -0.86111,0.4406 -1.273822,0.68936 0.02995,0.045 -0.01398,0.0967 -0.10542,0.0786 -0.0062,-0.001 -0.01602,0.003 -0.02636,0.007 -0.917145,0.56671 -1.763444,1.22678 -2.50579,1.96164 -0.01181,0.0164 -0.02357,0.0329 -0.03566,0.0491 -0.03278,0.0419 -0.0639,0.0853 -0.09612,0.12765 -0.0272,0.0327 -0.05327,0.0659 -0.08268,0.0966 -0.02991,0.0322 -0.06362,0.061 -0.09715,0.0894 -0.02172,0.0184 -0.04251,0.0274 -0.06098,0.03 -1.000684,1.07462 -1.796959,2.27193 -2.283581,3.51968 -0.586667,1.50429 -0.672625,2.12867 -0.730705,5.30666 l -0.05323,2.91713 h -0.998389 c -1.300656,0 -1.901554,0.16783 -2.569869,0.71675 -0.912376,0.7494 -0.853027,-0.14676 -0.851627,12.77287 6.6e-4,6.27444 0.03158,11.55886 0.06873,11.74347 0.115998,0.57648 0.677579,1.23357 1.326018,1.55184 0.319497,0.15681 0.709318,0.30164 0.866613,0.32194 v 5.2e-4 c 0.157304,0.0202 7.777847,0.0324 16.933852,0.0274 l 16.64704,-0.0103 0.56276,-0.24339 c 0.56353,-0.24405 0.91645,-0.55403 1.29553,-1.1374 0.17328,-0.26672 0.19933,-1.11477 0.22272,-9.13019 -0.0624,-0.0636 -0.10521,-0.17085 -0.0997,-0.3235 0.004,-0.10749 0.008,-0.21511 0.015,-0.32246 0.0107,-0.16642 0.0285,-0.33249 0.0325,-0.49919 0.004,-0.1967 0.008,-0.39366 0.0181,-0.59015 0.01,-0.18518 0.029,-0.37006 0.03,-0.55552 0.001,-0.19588 0.002,-0.39171 0.005,-0.58756 0.002,-0.10838 0.004,-0.21667 0.008,-0.32504 0.0331,-12.73494 0.0805,-11.94736 -0.82579,-12.69174 -0.67039,-0.55061 -1.27058,-0.7183 -2.57349,-0.7183 h -0.99942 l -0.0548,-3.00602 c -0.0605,-3.32061 -0.14937,-3.90587 -0.83922,-5.50095 -2.17423,-5.02726 -7.95657,-8.01818 -13.94592,-7.93595 z m -0.4191,1.22318 v 5.2e-4 5.2e-4 5.1e-4 5.2e-4 c 1.30269,-0.0275 2.94671,0.0667 3.73982,0.24081 5.21781,1.14533 8.85789,4.31813 9.81026,8.5509 0.12866,0.57182 0.16743,1.40421 0.16743,3.58531 v 2.84066 h -1.30121 -1.30173 v -2.75332 c 0,-3.01802 -0.0663,-3.52258 -0.6289,-4.78524 -1.26979,-2.85009 -4.36605,-4.94504 -8.08892,-5.47254 -1.20506,-0.17076 -3.38881,-0.0642 -4.56096,0.22273 -1.10916,0.27148 -2.13859,0.6873 -3.06234,1.21646 -10e-4,0.002 -0.002,0.003 -0.004,0.005 -0.006,0.0251 -0.0241,0.0517 -0.0558,0.076 -0.0171,0.0221 -0.0337,0.0445 -0.0532,0.0646 -0.0371,0.0382 -0.082,0.0677 -0.12713,0.0956 -0.0463,0.0275 -0.0939,0.0524 -0.14056,0.0791 -0.0293,0.0153 -0.0573,0.0326 -0.0858,0.0491 -0.0343,0.0289 -0.0673,0.0594 -0.10284,0.0868 -0.0362,0.0294 -0.0712,0.0599 -0.10645,0.0904 -0.037,0.0302 -0.0722,0.0625 -0.108,0.0941 -0.0354,0.0318 -0.0692,0.0651 -0.10491,0.0966 -0.002,10e-4 -0.003,0.003 -0.005,0.004 -0.0132,0.0132 -0.0261,0.0271 -0.0393,0.0403 -0.0328,0.0338 -0.0678,0.0649 -0.10336,0.0956 -0.0482,0.0399 -0.10031,0.0742 -0.15141,0.11007 -0.0454,0.0339 -0.0903,0.0689 -0.13642,0.1018 -0.0573,0.0431 -0.1151,0.0848 -0.1726,0.12765 -0.053,0.0383 -0.1038,0.0791 -0.154,0.12092 -0.0407,0.0353 -0.0827,0.0697 -0.1235,0.1049 -0.0404,0.0342 -0.08,0.0692 -0.11989,0.10387 l -0.009,0.009 c -0.0104,0.01 -0.0218,0.0204 -0.0336,0.031 -0.0318,0.0303 -0.0626,0.0618 -0.093,0.0935 -0.0437,0.0435 -0.0871,0.0873 -0.12764,0.13384 -0.0358,0.0411 -0.0708,0.0828 -0.10697,0.12351 -0.035,0.0489 -0.0712,0.0985 -0.11886,0.13591 -0.0126,0.008 -0.0257,0.0153 -0.0388,0.0217 -0.0203,0.0197 -0.0407,0.0393 -0.0605,0.0594 -0.05313,0.0534 -0.103854,0.10863 -0.150894,0.16743 -0.03705,0.0497 -0.07049,0.10207 -0.105937,0.15297 -0.04128,0.0583 -0.08277,0.11683 -0.12609,0.17363 -0.04381,0.0565 -0.09257,0.10883 -0.141077,0.16123 -0.04091,0.0433 -0.08011,0.0879 -0.119889,0.13229 -0.0357,0.0385 -0.06835,0.0799 -0.101803,0.12041 -0.02107,0.025 -0.04241,0.05 -0.06305,0.0754 -0.01561,0.0188 -0.03137,0.037 -0.04754,0.0553 -0.0094,0.0105 -0.0164,0.0232 -0.0217,0.0362 -0.01522,0.0373 -0.04061,0.05 -0.06098,0.046 -0.932092,1.56202 -0.987405,1.85606 -1.034562,5.29115 l -0.04134,3.00602 h -1.293978 -1.293461 v -2.79414 c 0,-3.08847 0.0861,-3.764 0.659908,-5.17075 0.395076,-0.96857 0.958565,-1.87162 1.656747,-2.69079 -0.0047,-0.0266 -0.01638,-0.0403 -0.04806,-0.0103 0.01061,-0.0129 0.02202,-0.025 0.03411,-0.0367 0.03004,-0.0267 0.06096,-0.0523 0.09095,-0.0791 0.04018,-0.0317 0.07702,-0.0669 0.115239,-0.10077 0.02579,-0.0231 0.05104,-0.0468 0.07648,-0.0703 0.01403,-0.0153 0.02929,-0.0297 0.04341,-0.045 0.0013,-0.0173 0.0041,-0.0349 0.0083,-0.0532 0.0247,-0.0691 0.06827,-0.1333 0.131775,-0.1726 0.016,-0.01 0.03341,-0.0173 0.05013,-0.0264 0.02632,-0.0111 0.05332,-0.0196 0.08062,-0.0274 0.0368,-0.0371 0.07108,-0.076 0.10852,-0.11265 0.0062,-0.006 0.01257,-0.0125 0.0186,-0.0191 0.03752,-0.0426 0.07635,-0.0842 0.115238,-0.12557 0.03602,-0.038 0.07047,-0.0773 0.10542,-0.11628 0.02887,-0.0348 0.05643,-0.0704 0.08682,-0.10387 0.04157,-0.0411 0.08423,-0.0813 0.12764,-0.1204 0.04275,-0.0353 0.08537,-0.0706 0.128158,-0.10594 0.04393,-0.0385 0.09052,-0.0738 0.137459,-0.10852 0.04726,-0.0359 0.09283,-0.0737 0.138493,-0.11162 0.03832,-0.0286 0.07335,-0.0608 0.109554,-0.092 0.02924,-0.0302 0.06417,-0.0545 0.09767,-0.0796 0.03514,-0.0259 0.06662,-0.0555 0.100253,-0.0832 0.0403,-0.0332 0.08109,-0.0661 0.121956,-0.0987 0.03976,-0.033 0.08021,-0.0661 0.12299,-0.0951 0.05022,-0.0325 0.101883,-0.0628 0.151927,-0.0956 0.0403,-0.0265 0.0831,-0.0479 0.12558,-0.0708 0.0232,-0.0168 0.0463,-0.0334 0.0703,-0.0491 0.11776,-0.0728 0.23863,-0.14382 0.36897,-0.19172 0.002,-5.4e-4 0.003,8e-4 0.005,-0.002 0.0978,-0.0626 0.19464,-0.12615 0.29559,-0.18552 0.0193,-0.012 0.0388,-0.0236 0.0589,-0.0341 0.0257,-0.0135 0.0501,-0.0289 0.0749,-0.0439 l 0.0155,-0.009 c 0.0116,-0.007 0.0221,-0.0111 0.0326,-0.014 1.63281,-0.92722 3.52378,-1.56182 5.54902,-1.80505 0.3143,-0.0377 0.7104,-0.0606 1.14463,-0.0698 z m 1.01441,3.30368 c 4.23215,0.11736 7.89248,2.71678 8.5757,6.21512 0.0622,0.31846 0.11324,1.73183 0.11369,3.14038 l 0.001,2.56057 h -9.01082 -9.010307 l 0.04547,-2.8727 c 0.05122,-3.21515 0.08851,-3.42403 0.857832,-4.78782 1.37888,-2.44437 4.29137,-4.07674 7.5737,-4.24522 0.28643,-0.0147 0.57155,-0.0182 0.85369,-0.0103 z m -0.31264,13.0762 c 8.11384,-1.8e-4 16.22747,0.0303 16.50183,0.0909 0.22116,0.0489 0.52814,0.21141 0.68161,0.36122 l 0.27906,0.27234 v 11.62202 c 0,12.76607 0.0407,11.98809 -0.64751,12.28039 -0.28039,0.11906 -2.27774,0.13426 -16.83515,0.13126 -17.906226,-0.004 -16.858407,0.0256 -17.260958,-0.47904 -0.09649,-0.12096 -0.135969,-0.9449 -0.156063,-3.50005 -0.0029,-0.002 -0.006,-0.003 -0.0088,-0.005 -0.02973,-0.0147 -0.04111,-0.0344 -0.04909,-0.062 -0.0057,-0.012 -0.01116,-0.0246 -0.01602,-0.0393 -0.01412,-0.0763 -0.01067,-0.15359 -0.01034,-0.23099 2.09e-4,-0.0999 3.98e-4,-0.19983 0.001,-0.29973 3.26e-4,-0.0378 0.0015,-0.0755 0.0021,-0.11317 -5.77e-4,-0.0219 -0.0017,-0.0437 -0.0021,-0.0656 -8.07e-4,-0.0582 -9.57e-4,-0.11646 -0.001,-0.17466 -1.24e-4,-0.0602 2.5e-5,-0.12067 0,-0.18087 -2.1e-5,-0.0634 3e-6,-0.12677 0,-0.19017 -3e-6,-0.0672 0,-0.13434 0,-0.20154 v -0.20309 -0.19843 -0.1726 -0.17208 -0.15917 -0.17518 -0.19017 -0.1726 -0.15865 -0.16071 -0.18707 -0.1664 c 0.0039,-0.0617 0.01195,-0.12278 0.01705,-0.18448 0.0018,-0.0572 0.0087,-0.11393 0.01705,-0.17053 0.0058,-0.0393 0.01713,-0.0711 0.03152,-0.0966 -0.0015,-1.29031 -0.0036,-2.46376 -0.0036,-4.25814 v -11.6656 l 0.279053,-0.27234 c 0.153468,-0.14981 0.45865,-0.3122 0.677994,-0.3607 0.274423,-0.0607 8.388505,-0.0913 16.502355,-0.0915 z m 0.002,5.83272 c -1.23608,0 -1.27329,0.006 -2.08359,0.33486 -1.39757,0.56733 -2.30239,1.56214 -2.59106,2.84893 -0.27173,1.2112 0.27864,2.54886 1.42059,3.4525 l 0.65112,0.51521 v 2.23966 c 0,2.18834 0.006,2.24925 0.26045,2.65978 0.31961,0.5157 0.62377,0.75558 1.25781,0.99168 1.29816,0.48334 2.85283,0.0199 3.48816,-1.03973 0.2419,-0.40366 0.25517,-0.52505 0.28887,-2.67168 l 0.0351,-2.24844 0.61546,-0.51263 c 2.32915,-1.94005 1.70078,-5.03357 -1.2671,-6.23838 -0.8018,-0.32589 -0.84169,-0.33176 -2.07585,-0.33176 z m -0.22789,1.125 c 0.83113,-0.0542 1.67762,0.14995 2.33578,0.6258 0.62132,0.44921 1.00412,0.9767 1.14205,1.57406 0.20091,0.87049 -0.2302,1.92543 -1.00098,2.44998 -0.22819,0.15529 -0.55897,0.38994 -0.73535,0.5209 l -0.32091,0.23771 v 2.45515 2.45515 l -0.29818,0.2744 c -0.56222,0.51678 -1.69654,0.3832 -1.98179,-0.23306 -0.0592,-0.12782 -0.10593,-1.28193 -0.10593,-2.62051 v -2.39262 l -0.32918,-0.20723 c -0.87014,-0.54744 -1.09457,-0.748 -1.40095,-1.2516 -0.26904,-0.44222 -0.33021,-0.65317 -0.33021,-1.13636 0,-0.76785 0.23475,-1.31772 0.78083,-1.82728 0.59777,-0.5578 1.4137,-0.87026 2.24482,-0.92449 z" /><text
       xml:space="preserve"
       style="font-size:16.0385px;fill:#000000;stroke-width:1.33654;image-rendering:auto"
       x="51.694263"
       y="78.499176"
       id="text2"
       transform="scale(0.80861362,1.2366846)"><tspan
         sodipodi:role="line"
         id="tspan2"
         style="stroke-width:1.33654"
         x="51.694263"
         y="78.499176">Обла4ко</tspan></text></g></svg>
